<?xml version="1.0" encoding="UTF-8" standalone="no"?>
<svg
   version="1.1"
   id="svg4496"
   width="3000"
   height="800"
   viewBox="0 0 3000 800"
   sodipodi:docname="header.svg"
   inkscape:version="1.3.2 (091e20e, 2023-11-25, custom)"
   inkscape:export-filename="C:\biga.png"
   inkscape:export-xdpi="60.939999"
   inkscape:export-ydpi="60.939999"
   xmlns:inkscape="http://www.inkscape.org/namespaces/inkscape"
   xmlns:sodipodi="http://sodipodi.sourceforge.net/DTD/sodipodi-0.dtd"
   xmlns:xlink="http://www.w3.org/1999/xlink"
   xmlns="http://www.w3.org/2000/svg"
   xmlns:svg="http://www.w3.org/2000/svg"
   xmlns:rdf="http://www.w3.org/1999/02/22-rdf-syntax-ns#"
   xmlns:cc="http://creativecommons.org/ns#"
   xmlns:dc="http://purl.org/dc/elements/1.1/">
  <metadata
     id="metadata4502">
    <rdf:RDF>
      <cc:Work
         rdf:about="">
        <dc:format>image/svg+xml</dc:format>
        <dc:type
           rdf:resource="http://purl.org/dc/dcmitype/StillImage" />
      </cc:Work>
    </rdf:RDF>
  </metadata>
  <defs
     id="defs4500">
    <linearGradient
       inkscape:collect="always"
       id="linearGradient2">
      <stop
         style="stop-color:#0b87da;stop-opacity:1;"
         offset="0"
         id="stop1" />
      <stop
         style="stop-color:#fdfefe;stop-opacity:1"
         offset="1"
         id="stop2" />
    </linearGradient>
    <linearGradient
       inkscape:collect="always"
       id="linearGradient5341">
      <stop
         style="stop-color:#0b87da;stop-opacity:1;"
         offset="0"
         id="stop5337" />
      <stop
         style="stop-color:#fdfefe;stop-opacity:1"
         offset="1"
         id="stop5339" />
    </linearGradient>
    <filter
       style="color-interpolation-filters:sRGB"
       inkscape:label="Drop Shadow"
       id="filter5465">
      <feFlood
         flood-opacity="0.498039"
         flood-color="rgb(0,0,0)"
         result="flood"
         id="feFlood5455" />
      <feComposite
         in="flood"
         in2="SourceGraphic"
         operator="in"
         result="composite1"
         id="feComposite5457" />
      <feGaussianBlur
         in="composite1"
         stdDeviation="8.3"
         result="blur"
         id="feGaussianBlur5459" />
      <feOffset
         dx="6"
         dy="6"
         result="offset"
         id="feOffset5461" />
      <feComposite
         in="SourceGraphic"
         in2="offset"
         operator="over"
         result="fbSourceGraphic"
         id="feComposite5463" />
      <feColorMatrix
         result="fbSourceGraphicAlpha"
         in="fbSourceGraphic"
         values="0 0 0 -1 0 0 0 0 -1 0 0 0 0 -1 0 0 0 0 1 0"
         id="feColorMatrix6247" />
      <feFlood
         id="feFlood6249"
         flood-opacity="0.498039"
         flood-color="rgb(0,0,0)"
         result="flood"
         in="fbSourceGraphic" />
      <feComposite
         in2="fbSourceGraphic"
         id="feComposite6251"
         in="flood"
         operator="in"
         result="composite1" />
      <feGaussianBlur
         id="feGaussianBlur6253"
         in="composite1"
         stdDeviation="0"
         result="blur" />
      <feOffset
         id="feOffset6255"
         dx="4"
         dy="6"
         result="offset" />
      <feComposite
         in2="offset"
         id="feComposite6257"
         in="fbSourceGraphic"
         operator="over"
         result="composite2" />
    </filter>
    <filter
       style="color-interpolation-filters:sRGB"
       inkscape:label="Drop Shadow"
       id="filter5477">
      <feFlood
         flood-opacity="0.498039"
         flood-color="rgb(0,0,0)"
         result="flood"
         id="feFlood5467" />
      <feComposite
         in="flood"
         in2="SourceGraphic"
         operator="in"
         result="composite1"
         id="feComposite5469" />
      <feGaussianBlur
         in="composite1"
         stdDeviation="8.3"
         result="blur"
         id="feGaussianBlur5471" />
      <feOffset
         dx="6"
         dy="6"
         result="offset"
         id="feOffset5473" />
      <feComposite
         in="SourceGraphic"
         in2="offset"
         operator="over"
         result="fbSourceGraphic"
         id="feComposite5475" />
      <feColorMatrix
         result="fbSourceGraphicAlpha"
         in="fbSourceGraphic"
         values="0 0 0 -1 0 0 0 0 -1 0 0 0 0 -1 0 0 0 0 1 0"
         id="feColorMatrix6259" />
      <feFlood
         id="feFlood6261"
         flood-opacity="0.498039"
         flood-color="rgb(0,0,0)"
         result="flood"
         in="fbSourceGraphic" />
      <feComposite
         in2="fbSourceGraphic"
         id="feComposite6263"
         in="flood"
         operator="in"
         result="composite1" />
      <feGaussianBlur
         id="feGaussianBlur6265"
         in="composite1"
         stdDeviation="0"
         result="blur" />
      <feOffset
         id="feOffset6267"
         dx="4"
         dy="6"
         result="offset" />
      <feComposite
         in2="offset"
         id="feComposite6269"
         in="fbSourceGraphic"
         operator="over"
         result="composite2" />
    </filter>
    <linearGradient
       gradientUnits="userSpaceOnUse"
       y2="-132.45819"
       x2="1881.9504"
       y1="319.73761"
       x1="1881.9504"
       id="linearGradient1208"
       xlink:href="#linearGradient2"
       inkscape:collect="always"
       gradientTransform="matrix(0.61194594,0,0,0.61194594,288.18753,92.125267)" />
    <linearGradient
       gradientUnits="userSpaceOnUse"
       y2="607.74152"
       x2="1782.5403"
       y1="699.74152"
       x1="1782.5403"
       id="linearGradient875"
       xlink:href="#linearGradient5341"
       inkscape:collect="always"
       gradientTransform="matrix(1.3521039,0,0,1.3521039,-390.9099,-390.40818)" />
  </defs>
  <sodipodi:namedview
     pagecolor="#ffffff"
     bordercolor="#666666"
     borderopacity="1"
     objecttolerance="10"
     gridtolerance="10"
     guidetolerance="10"
     inkscape:pageopacity="0"
     inkscape:pageshadow="2"
     inkscape:window-width="1780"
     inkscape:window-height="1046"
     id="namedview4498"
     showgrid="false"
     showguides="true"
     inkscape:guide-bbox="true"
     inkscape:zoom="0.22627417"
     inkscape:cx="1608.6679"
     inkscape:cy="806.54367"
     inkscape:window-x="129"
     inkscape:window-y="1266"
     inkscape:window-maximized="1"
     inkscape:current-layer="layer2"
     inkscape:document-rotation="0"
     inkscape:showpageshadow="0"
     inkscape:pagecheckerboard="0"
     inkscape:deskcolor="#505050">
    <sodipodi:guide
       position="401.42006,348.14234"
       orientation="1,0"
       inkscape:locked="false"
       id="guide5382" />
    <sodipodi:guide
       position="574.11336,402.33865"
       orientation="0,1"
       inkscape:locked="false"
       id="guide5384" />
    <sodipodi:guide
       position="818.75,-578.125"
       orientation="1,0"
       id="guide867"
       inkscape:locked="false" />
  </sodipodi:namedview>
  <g
     inkscape:groupmode="layer"
     id="layer2"
     inkscape:label="Layer 1">
    <text
       id="text968"
       y="391.974"
       x="800.91693"
       style="font-style:normal;font-variant:normal;font-weight:normal;font-stretch:normal;font-size:373.864px;line-height:1.25;font-family:Calibri;-inkscape-font-specification:Calibri;fill:url(#linearGradient1208);fill-opacity:1;stroke:none;stroke-width:1"
       xml:space="preserve"><tspan
         style="font-style:normal;font-variant:normal;font-weight:normal;font-stretch:normal;font-family:Calibri;-inkscape-font-specification:Calibri;fill:url(#linearGradient1208);fill-opacity:1;stroke-width:1"
         y="391.974"
         x="800.91693"
         id="tspan966"
         sodipodi:role="line">GraphicSearch</tspan></text>
    <text
       id="text1212"
       y="570.21429"
       x="816.52551"
       style="font-style:normal;font-weight:normal;font-size:121.474px;line-height:1.25;font-family:sans-serif;fill:url(#linearGradient875);fill-opacity:1;stroke:none;stroke-width:1"
       xml:space="preserve"><tspan
         style="font-style:normal;font-variant:normal;font-weight:normal;font-stretch:normal;font-size:121.474px;font-family:Calibri;-inkscape-font-specification:Calibri;fill:url(#linearGradient875);fill-opacity:1;stroke-width:1"
         y="570.21429"
         x="816.52551"
         sodipodi:role="line"
         id="tspan1">A lightning-fast, highly versatile, </tspan><tspan
         style="font-style:normal;font-variant:normal;font-weight:normal;font-stretch:normal;font-size:121.474px;font-family:Calibri;-inkscape-font-specification:Calibri;fill:url(#linearGradient875);fill-opacity:1;stroke-width:1"
         y="726.29321"
         x="816.52551"
         sodipodi:role="line"
         id="tspan2">and powerful screen searching library</tspan></text>
    <path
       style="display:inline;fill:#000000;stroke-width:1"
       d="M 52.229205,700.19643 C 37.553488,695.67233 23.04678,682.75792 15.06473,667.1118 9.7947882,656.78184 9.6002774,647.17246 9.6002774,397.1732 c 0,-283.54858 -0.7595177,-270.27659 16.5178246,-288.48112 4.222106,-4.44851 12.428893,-10.532675 18.237168,-13.520445 10.219303,-5.256407 21.489883,-5.430056 348.68449,-5.369591 321.88857,0.04848 338.67623,0.312036 349.62732,5.287803 12.72259,5.779113 25.73573,19.645113 31.62402,33.696503 3.12622,7.46001 3.82664,57.09434 3.77576,267.5618 -0.0651,244.87341 -0.33675,259.00697 -5.30617,269.94703 -6.84568,15.0712 -25.92027,31.17688 -41.6008,35.12506 -8.76652,2.2075 -109.70682,3.08352 -339.26703,2.94436 -271.02843,-0.16474 -328.984767,-0.877 -339.663655,-4.16817 z M 725.2675,648.85456 c 3.99791,-3.99782 4.47299,-30.80652 4.47299,-252.39419 0,-226.69891 -0.40338,-248.36691 -4.71076,-253.12668 -4.51146,-4.98507 -18.50092,-5.20534 -330.67026,-5.20534 -299.314459,0 -326.385193,0.38375 -331.164999,4.71093 -4.966781,4.49483 -5.205397,16.04801 -5.205397,252.09367 0,165.08424 0.980057,249.21473 2.946633,252.88859 2.887033,5.39458 9.580811,5.50604 331.402743,5.50604 294.80129,0 328.91448,-0.45836 332.92905,-4.47302 z m -613.19669,-85.8772 v -39.11493 l 63.29827,-63.34521 63.29841,-63.34528 32.07207,31.98119 32.07192,31.9808 101.75769,-101.72829 c 10.5292,-10.5261 27.99111,-19.89204 27.99111,-19.89204 l 161.28286,0.0205 81.81569,81.85215 v 90.35517 90.35527 H 393.86478 112.07081 Z"
       id="path4496-2"
       inkscape:connector-curvature="0"
       sodipodi:nodetypes="cscccccccssccccscscscccccccsscccccccc" />
    <circle
       style="display:inline;vector-effect:none;fill:#070707;fill-opacity:1;fill-rule:nonzero;stroke:#000000;stroke-width:2.5;stroke-linecap:round;stroke-linejoin:round;stroke-miterlimit:4;stroke-dasharray:none;stroke-dashoffset:0.6;stroke-opacity:1;paint-order:markers fill stroke"
       id="path6282"
       cx="185.93645"
       cy="267.36948"
       r="74.776039" />
    <rect
       style="display:inline;fill:none;fill-opacity:1;fill-rule:evenodd;stroke:#0b87da;stroke-width:30;stroke-linecap:round;stroke-linejoin:round;stroke-miterlimit:4;stroke-dasharray:none;stroke-dashoffset:0.6;stroke-opacity:1;paint-order:normal"
       id="rect4670"
       width="204.61284"
       height="131.6026"
       x="404.80902"
       y="214.81369"
       ry="0"
       rx="0" />
    <path
       style="display:inline;stroke-width:100"
       d="m 504.72187,256.73058 v 11.27487 h 11.27233 v -11.24696 z m 11.27233,11.27487 v 11.27235 h 11.2723 v -11.2896 z m 11.2723,11.27235 v 11.26731 h 11.2723 v -11.23727 z m 11.2723,11.26731 v 11.27234 h 11.26734 v -11.2799 z m 11.26734,11.27234 v 11.27225 h 11.2723 v -11.26082 z m 11.2723,11.27225 v 11.27236 h 11.27231 v -11.24125 z m 11.27231,11.27236 v 11.26731 h 11.26733 v -11.25608 z m 0,11.26731 h -11.27231 z m -112.71313,0 h -11.2673 z m -11.2673,0 v -11.26731 l -11.27233,-0.0103 v 11.27748 z m 0,-11.26731 h 11.2673 V 313.0897 l -11.2673,-0.0289 z m 11.2673,-11.27236 h 11.27231 v -11.27225 l -11.27231,-0.0103 z m 11.27231,-11.27225 h 11.27233 v -11.27234 l -11.27233,-0.0291 z m 11.27233,-11.27234 h 11.2723 V 279.2778 l -11.2723,-0.0582 z m 11.2723,-11.26731 h 11.26731 v -11.27235 l -11.26731,-0.0485 z m 11.26731,0 v 11.26731 H 515.9942 V 279.2778 Z m 11.27233,11.26731 v 11.27234 h 11.2723 v -11.27234 z m 11.2723,11.27234 v 11.27225 h 11.2723 v -11.27225 z m 11.2723,11.27225 v 11.27236 h 11.26734 V 313.0897 Z m 11.26734,11.27236 v 11.26731 h 11.2723 v -11.26731 z m 0,11.26731 H 538.5388 Z m -22.53964,0 h -11.2723 z m -22.54463,0 h -11.26731 z m -22.53961,0 h -11.27233 z m -11.27233,0 v -11.26731 h -11.27231 v 11.26731 z m 0,-11.26731 h 11.27233 V 313.0897 h -11.27233 z m 11.27233,-11.27236 h 11.2723 v -11.27225 h -11.2723 z m 11.2723,-11.27225 h 11.26731 v -11.27234 h -11.26731 z m 11.26731,0 v 11.27225 h 11.27233 v -11.27225 z m 11.27233,11.27225 v 11.27236 h 11.2723 V 313.0897 Z m 11.2723,11.27236 v 11.26731 h 11.2723 v -11.26731 z m -11.2723,0 h -11.27233 v 11.26731 h 11.27233 z m -11.27233,0 V 313.0897 h -11.26731 v 11.27236 z m -11.26731,0 h -11.2723 v 11.26731 h 11.2723 z"
       id="path6566-8-1"
       sodipodi:nodetypes="cccccccccccccccccccccccccccccccccccccccccccccccccccccccccccccccccccccccccccccccccccccccccccccccccccccccccccccccccccccccccccccccccccccccccccccccccccccccccccccc" />
  </g>
  <g
     inkscape:groupmode="layer"
     id="layer1"
     inkscape:label="Layer 2" />
</svg>
